<svg width="40" height="40" viewBox="0 0 40 40" fill="none" xmlns="http://www.w3.org/2000/svg">
<circle cx="20" cy="20" r="20" fill="black"/>
<g clip-path="url(#clip0_196_1654)">
<path d="M19 14C20.1046 14 21 13.1046 21 12C21 10.8954 20.1046 10 19 10C17.8954 10 17 10.8954 17 12C17 13.1046 17.8954 14 19 14Z" stroke="white" stroke-width="3" stroke-linecap="round" stroke-linejoin="round"/>
<path d="M26 18C27.1046 18 28 17.1046 28 16C28 14.8954 27.1046 14 26 14C24.8954 14 24 14.8954 24 16C24 17.1046 24.8954 18 26 18Z" stroke="white" stroke-width="3" stroke-linecap="round" stroke-linejoin="round"/>
<path d="M28 26C29.1046 26 30 25.1046 30 24C30 22.8954 29.1046 22 28 22C26.8954 22 26 22.8954 26 24C26 25.1046 26.8954 26 28 26Z" stroke="white" stroke-width="3" stroke-linecap="round" stroke-linejoin="round"/>
<path d="M17 18C17.6566 18 18.3068 18.1293 18.9134 18.3806C19.52 18.6319 20.0712 19.0002 20.5355 19.4645C20.9998 19.9288 21.3681 20.48 21.6194 21.0866C21.8707 21.6932 22 22.3434 22 23V26.5C21.9997 27.3365 21.6999 28.1452 21.1548 28.7796C20.6097 29.4141 19.8554 29.8324 19.0286 29.9587C18.2017 30.085 17.3569 29.9111 16.6473 29.4683C15.9376 29.0255 15.41 28.3432 15.16 27.545C14.7333 26.1683 13.8333 25.2667 12.46 24.84C11.6622 24.5901 10.9802 24.0629 10.5374 23.3538C10.0945 22.6446 9.92021 21.8004 10.0459 20.9739C10.1716 20.1473 10.5889 19.3931 11.2225 18.8476C11.8561 18.3021 12.664 18.0015 13.5 18H17Z" stroke="white" stroke-width="3" stroke-linecap="round" stroke-linejoin="round"/>
</g>
<defs>
<clipPath id="clip0_196_1654">
<rect width="24" height="24" fill="white" transform="translate(8 8)"/>
</clipPath>
</defs>
</svg>
